<svg width="195" height="135" viewBox="0 0 195 135" fill="none" xmlns="http://www.w3.org/2000/svg">
<g clip-path="url(#clip0_60_100)">
<path d="M165.332 95.3613L175.781 105.811C177.539 107.568 177.49 110.352 175.781 112.012C174.072 113.721 171.289 113.818 169.58 112.061L159.082 101.611C157.373 99.9023 157.373 97.0703 159.082 95.3613C160.791 93.7012 163.623 93.7012 165.332 95.3613ZM160.693 66.2109C160.693 77.5836 154.387 87.6065 145.113 92.9223C143.17 75.2039 128.731 62.0224 109.912 60.2539C107.907 57.0064 105.601 54.038 103.015 51.4091C108.277 41.8983 118.421 35.4004 129.932 35.4004C146.777 35.4004 160.693 49.3164 160.693 66.2109ZM194.629 66.2598C194.629 68.7012 192.676 70.6543 190.234 70.6543H175.537C173.145 70.6543 171.094 68.7012 171.094 66.2598C171.094 63.8672 173.145 61.8652 175.537 61.8652H190.234C192.676 61.8652 194.629 63.8672 194.629 66.2598ZM175.781 20.4102C177.49 22.1191 177.539 25 175.781 26.709L165.381 37.1582C163.623 38.8672 160.791 38.8184 159.082 37.1582C157.373 35.4492 157.373 32.6172 159.082 30.957L169.58 20.4102C171.289 18.7012 174.072 18.75 175.781 20.4102ZM90.3809 20.4102L100.83 30.957C102.49 32.5684 102.49 35.498 100.781 37.1582C99.1211 38.8184 96.2402 38.8184 94.5801 37.1582L84.1309 26.6602C82.4707 25 82.4707 22.1191 84.1797 20.4102C85.8887 18.75 88.7207 18.75 90.3809 20.4102ZM134.424 5.81055V20.6055C134.424 22.9492 132.373 24.9512 129.98 24.9512C127.588 24.9512 125.537 22.9492 125.537 20.6055V5.81055C125.537 3.4668 127.588 1.41602 129.98 1.41602C132.373 1.41602 134.424 3.4668 134.424 5.81055Z" fill="#FFD600"/>
<path d="M38.6719 127.637H107.08C124.805 127.637 138.574 114.258 138.574 97.0703C138.574 79.9316 124.561 66.9922 105.908 66.8457C98.6816 53.0273 85.8887 44.3359 70.1172 44.3359C49.7559 44.3359 32.666 60.3516 30.7617 81.0059C20.2637 84.082 12.8906 92.8223 12.8906 104.199C12.8906 117.725 23.0469 127.637 38.6719 127.637Z" fill="white"/>
</g>
<defs>
<clipPath id="clip0_60_100">
<rect width="194.629" height="134.424" fill="white"/>
</clipPath>
</defs>
</svg>
